<svg version="1.1" xmlns="http://www.w3.org/2000/svg" xmlns:xlink="http://www.w3.org/1999/xlink" role="img" width="215" height="90" viewbox="0 0 215 90"><title>Stream</title><desc>Generated by logo.svg, https://github.com/bubkoo/logo.svg</desc><path fill="#2b68a7" d="M15.66 70.99Q10.98 70.99 7.82 69.74Q4.65 68.50 3.05 66.42Q1.45 64.34 1.45 61.84Q1.45 59.41 2.98 58.19Q4.52 56.98 6.38 56.98Q6.38 59.92 7.43 62.38Q8.49 64.85 10.63 66.35Q12.78 67.86 16.10 67.86Q20.58 67.86 23.21 65.62Q25.83 63.38 25.83 59.60Q25.83 57.68 25.26 56.14Q24.68 54.61 22.95 53.07Q21.22 51.54 17.77 49.55Q13.74 47.25 11.21 44.24Q8.68 41.23 8.68 36.37Q8.68 32.72 10.54 29.94Q12.39 27.15 15.88 25.58Q19.37 24.02 24.23 24.02Q29.80 24.02 33.10 25.94Q36.39 27.86 36.39 30.93Q36.39 32.91 35.05 34.13Q33.70 35.34 30.76 35.34Q30.76 33.62 30.18 31.73Q29.61 29.84 28.10 28.53Q26.60 27.22 23.72 27.22Q21.48 27.22 19.50 28.08Q17.51 28.94 16.26 30.74Q15.02 32.53 15.02 35.28Q15.02 37.65 15.88 39.25Q16.74 40.85 18.54 42.19Q20.33 43.54 22.95 45.07Q27.75 47.82 30.09 50.77Q32.42 53.71 32.42 57.55Q32.42 63.95 27.94 67.47Q23.46 70.99 15.66 70.99ZM47.53 70.99Q40.55 70.99 40.55 63.50Q40.55 62.35 40.74 60.85Q40.94 59.34 41.19 58.13L45.10 39.70L40.23 39.70L40.81 37.14Q43.56 37.14 46.12 35.12Q48.68 33.10 50.60 28.18L53.54 28.18L51.88 36.05L59.62 36.05L58.86 39.70L51.11 39.70L47.21 57.94Q46.89 59.54 46.66 60.98Q46.44 62.42 46.44 63.44Q46.44 65.30 47.34 66.13Q48.23 66.96 49.83 66.96Q51.18 66.96 52.58 66.54Q53.99 66.13 55.08 65.55L56.17 67.92Q54.25 69.26 52.07 70.13Q49.90 70.99 47.53 70.99ZM62.18 70.35L67.56 44.62Q67.75 43.73 67.85 42.90Q67.94 42.06 67.94 41.74Q67.94 39.82 66.28 39.28Q64.62 38.74 62.82 38.74L62.31 38.74L62.89 36.05L74.22 36.05L72.87 45.26L73.51 45.26Q74.73 42.64 76.14 40.40Q77.54 38.16 79.53 36.78Q81.51 35.41 84.39 35.41Q87.08 35.41 88.36 36.66Q89.64 37.90 89.64 39.82Q89.64 42.06 88.39 43.38Q87.14 44.69 84.33 44.69Q84.33 42.38 83.82 41.01Q83.30 39.63 81.77 39.63Q80.10 39.63 78.41 41.36Q76.71 43.09 75.21 45.94Q73.70 48.78 72.49 52.14Q71.27 55.50 70.57 58.70L68.14 70.35L62.18 70.35ZM103.27 70.99Q99.82 70.99 97 69.52Q94.18 68.05 92.49 65.14Q90.79 62.22 90.79 57.74Q90.79 54.22 92.01 50.32Q93.22 46.42 95.66 43.02Q98.09 39.63 101.64 37.52Q105.19 35.41 109.86 35.41Q113.90 35.41 116.14 37.36Q118.38 39.31 118.38 42.77Q118.38 46.16 115.98 49.07Q113.58 51.98 109.38 53.78Q105.19 55.57 99.82 55.57L97.58 55.57Q97.51 56.27 97.48 56.94Q97.45 57.62 97.45 58.26Q97.45 62.42 99.24 64.69Q101.03 66.96 104.49 66.96Q107.56 66.96 109.96 65.49Q112.36 64.02 113.70 62.35Q114.34 62.80 114.34 63.95Q114.34 65.36 113.16 66.99Q111.98 68.62 109.54 69.81Q107.11 70.99 103.27 70.99M98.15 52.62L98.79 52.62Q102.50 52.62 105.45 51.38Q108.39 50.13 110.09 47.92Q111.78 45.71 111.78 42.77Q111.78 38.48 108.07 38.48Q106.22 38.48 104.65 39.73Q103.08 40.98 101.80 43.06Q100.52 45.14 99.59 47.63Q98.66 50.13 98.15 52.62ZM130.60 70.99Q127.78 70.99 125.93 69.46Q124.07 67.92 123.21 65.26Q122.34 62.61 122.34 59.28Q122.34 56.27 123.14 52.98Q123.94 49.68 125.54 46.58Q127.14 43.47 129.45 40.94Q131.75 38.42 134.76 36.91Q137.77 35.41 141.42 35.41Q143.72 35.41 145.67 36.05Q147.62 36.69 148.90 37.71L151.72 36.11L153.77 36.11L149.42 56.59Q149.29 57.30 149.03 58.64Q148.78 59.98 148.62 61.39Q148.46 62.80 148.46 63.70Q148.46 66.96 150.57 66.96Q151.59 66.96 152.78 66.48Q153.96 66 155.18 65.30L156.33 67.15Q155.43 67.98 153.90 68.88Q152.36 69.78 150.63 70.38Q148.90 70.99 147.30 70.99Q145 70.99 143.66 69.58Q142.31 68.18 142.31 65.68Q142.31 64.40 142.47 63.34Q142.63 62.29 142.95 60.69L142.57 60.69Q140.33 65.62 137.35 68.30Q134.38 70.99 130.60 70.99M132.90 66.96Q134.57 66.96 136.33 65.68Q138.09 64.40 139.66 62.22Q141.22 60.05 142.44 57.36Q143.66 54.67 144.23 51.92L146.60 40.59Q145.90 39.44 144.55 38.86Q143.21 38.29 141.74 38.29Q139.18 38.29 137.13 39.73Q135.08 41.17 133.54 43.54Q132.01 45.90 130.95 48.72Q129.90 51.54 129.38 54.38Q128.87 57.23 128.87 59.54Q128.87 63.50 130.02 65.23Q131.18 66.96 132.90 66.96ZM205.10 70.99Q202.28 70.99 200.78 69.20Q199.27 67.41 199.27 64.59Q199.27 61.65 200.49 55.95L201.58 50.96Q201.77 50.13 202.09 48.75Q202.41 47.38 202.66 45.94Q202.92 44.50 202.92 43.34Q202.92 42.06 202.38 40.82Q201.83 39.57 199.98 39.57Q198.12 39.57 196.30 40.82Q194.47 42.06 192.87 44.05Q191.27 46.03 190.09 48.30Q188.90 50.58 188.26 52.56L187.24 57.17Q187.05 58.06 186.73 59.92Q186.41 61.78 186.12 63.92Q185.83 66.06 185.61 67.86Q185.38 69.65 185.38 70.35L179.30 70.35Q179.30 69.58 179.53 67.82Q179.75 66.06 180.07 63.86Q180.39 61.65 180.78 59.54Q181.16 57.42 181.48 55.95L182.57 50.96Q182.76 50.13 183.08 48.75Q183.40 47.38 183.66 45.94Q183.91 44.50 183.91 43.34Q183.91 42.06 183.37 40.82Q182.82 39.57 180.97 39.57Q178.92 39.57 176.97 41.04Q175.02 42.51 173.32 44.82Q171.62 47.12 170.44 49.58Q169.26 52.05 168.87 53.97L165.42 70.35L159.46 70.35L164.84 44.62Q165.03 43.73 165.13 42.90Q165.22 42.06 165.22 41.74Q165.22 39.82 163.88 39.28Q162.54 38.74 160.74 38.74L160.23 38.74L160.81 36.05L172.65 36.05L170.92 44.11L171.56 44.11Q174.18 39.89 176.90 37.68Q179.62 35.47 183.21 35.47Q186.98 35.47 188.52 37.62Q190.06 39.76 190.06 42.58Q190.06 42.96 190.02 43.34Q189.99 43.73 189.93 44.11L190.57 44.11Q193.13 39.89 195.88 37.68Q198.63 35.47 202.22 35.47Q205.99 35.47 207.53 37.62Q209.06 39.76 209.06 42.58Q209.06 44.18 208.65 46.06Q208.23 47.95 207.91 49.62L206.25 57.17Q205.86 58.96 205.64 60.69Q205.42 62.42 205.42 63.89Q205.42 66.96 207.66 66.96Q209.51 66.96 211.75 65.49L212.90 67.34Q211.37 68.62 209.48 69.81Q207.59 70.99 205.10 70.99Z"></path></svg>